<svg id="Capa_1" enable-background="new 0 0 512.005 512.005" height="512" fill="#F49328" viewBox="0 0 512.005 512.005" width="512" xmlns="http://www.w3.org/2000/svg"><g><path d="m419.663 113.556 26.511 42.042 65.831-155.598-155.598 65.831 42.042 26.512-16.672 16.673c-34.119-29.271-78.429-46.984-126.803-46.984-107.523 0-195 87.477-195 195 0 25.605 5.03 50.809 14.696 74.238l-74.67 74.669 79.55 26.517 26.516 79.55 74.67-74.67c23.429 9.666 48.633 14.696 74.238 14.696 107.523 0 195-87.477 195-195 0-48.374-17.713-92.685-46.984-126.803zm35.879-57.093-14.622 34.56-7.711-12.227-12.228-7.711zm-400.005 336.366 31.135-31.136 31.82 10.607-31.136 31.136zm63.639 63.639-10.606-31.819 31.136-31.136 10.606 31.82zm30.798-199.436c0-57.897 47.103-105 105-105s105 47.103 105 105-47.103 105-105 105c-23.55 0-45.314-7.794-62.849-20.938l21.52-21.52c11.859 7.863 26.065 12.457 41.329 12.457 41.355 0 75-33.645 75-75s-33.645-75-75-75-75 33.645-75 75c0 15.264 4.594 29.47 12.458 41.329l-21.52 21.52c-13.144-17.534-20.938-39.298-20.938-62.848zm60 0c0-24.813 20.187-45 45-45s45 20.187 45 45-20.187 45-45 45c-6.939 0-13.514-1.581-19.389-4.398l29.992-29.992-21.213-21.213-29.992 29.992c-2.817-5.875-4.398-12.451-4.398-19.389zm45 165c-28.584 0-56.572-7.406-81.291-21.457l-10.26-30.779 7.335-7.335c23.104 18.493 52.389 29.571 84.216 29.571 74.439 0 135-60.561 135-135s-60.561-135-135-135-135 60.561-135 135c0 31.827 11.078 61.112 29.571 84.216l-7.335 7.335-30.779-10.26c-14.051-24.72-21.457-52.707-21.457-81.291 0-90.981 74.019-165 165-165s165 74.019 165 165-74.019 165-165 165z"/></g></svg>